<!DOCTYPE svg PUBLIC "-//W3C//DTD SVG 1.1//EN" "http://www.w3.org/Graphics/SVG/1.1/DTD/svg11.dtd">
<!-- Uploaded to: SVG Repo, www.svgrepo.com, Transformed by: SVG Repo Mixer Tools -->
<svg fill="#000000" version="1.1" id="Capa_1" xmlns="http://www.w3.org/2000/svg" xmlns:xlink="http://www.w3.org/1999/xlink" width="800px" height="800px" viewBox="-37.28 -37.28 447.32 447.32" xml:space="preserve">
<g id="SVGRepo_bgCarrier" stroke-width="0">
<path transform="translate(-37.28, -37.28), scale(13.97875)" d="M16,28.55605454955782C18.205947601267564,28.35529649037853,20.500664126637034,29.321621046080377,22.54815993205112,28.476476357476535C24.63889810094312,27.613482521773395,25.955091647631342,25.611219535154564,27.38334170507705,23.857353455680474C28.904738553579442,21.98910474664196,31.23843835197552,20.255326942081904,31.204856954528573,17.84620388602964C31.170494885954515,15.381075632025622,28.459246793818792,13.874968447108987,27.214530774879265,11.746889479438632C26.19056582037217,9.996226476664226,25.82920712898251,7.935217419330433,24.507929922853855,6.396532356717987C23.083746905250216,4.738008978392441,21.428369704694646,3.109518709713278,19.315569875311574,2.548204230083673C17.194298588713465,1.9846391105532917,14.937538938016719,2.5656001006999016,12.870937475979597,3.304894299515853C10.916201664313084,4.004170319749736,9.327768724928593,5.338427887983805,7.748607507971453,6.6861032556982C6.146112742633526,8.053691757079056,4.610304545691539,9.461079049507156,3.5347142013772803,11.272540667445147C2.3338937886409963,13.29490921993997,1.1610070831726034,15.451452180585445,1.1474847313224181,17.803421859761727C1.133419327837313,20.249845594985995,2.1370706053420907,22.597922485981304,3.4577603203616807,24.657282970327195C4.802045932412414,26.753436697920165,6.416989531281672,28.988941791997366,8.794923785746779,29.728125759565657C11.152768983627482,30.46106501766695,13.541025818689098,28.779839957664656,16,28.55605454955782" fill="#ffc0cb" strokewidth="0"/>
</g>
<g id="SVGRepo_tracerCarrier" stroke-linecap="round" stroke-linejoin="round"/>
<g id="SVGRepo_iconCarrier"> <g> <path d="M66.042,298.898c25.702-2.65,46.685-65.158,45.459-83.048c1.483-1.472,23.062,14.726,21.825-10.218 c-12.717,12.494-18.38-4.741-13.721-12.319c4.636-7.579,8.15-6.971,10.72-11.619c2.592-4.642,3.76-31.75,12.856-32.731 c13.207,16.833,22.7,12.255,18.835,2.989c-5.278,10.316-11.607-7.059-4.846-11.887c8.641-5.979,17.877-4.542,26.542,12.004 c2.184,6.685,0.362,25.695,1.541,29.8c1.168,4.11,15.402,19.629,15.402,25.702c0,6.071-8.933,2.312-9.412,4.227 c-0.479,1.903-1.471,4.25-0.093,6.166c1.576,2.172,5.896,2.756,5.896,4.576c0,3.434-5.103,5.979-5.103,5.979 s4.134,2.825,4.052,6.002c-0.082,3.165-7.462,0.63-7.578,3.503c11.034,35.405-28.75,10.977-41.723,17.621 c-12.962,6.645-42.586,29.834-27.091,59.424c5.71,10.896,29.123-3.992,49.861-0.91c35.568,5.267,47.094,43.859,105.28,4.134 c45.086-26.741,70.646,2.312,79.896-32.311c9.225-34.622-45.717-56.786-28.166-84.951c9.786-15.706,48.483-32.328,46.184-86.352 c-4.986-37.378-41.57-40.164-38.791-25.397c16.16,2.761,8.325,21.06-1.846,20.318c-25.397-1.845,3.702-40.164-45.716-66.962 c-49.405-26.775-66.069,46.516-114.097,34.973c-7.264-1.875-16.943-9.768-26.262-9.575c-11.456,0.251-22.619,8.693-30.933,6.469 c-15.122-4.063-30.489-18.508-42.038-14.806c-13.872,4.449-13.557,32.106-22.63,42.02c-17.598,19.214-37.986,24.761-37.857,36.935 c0.117,11.636,23.086,26.787,18.462,44.793c-4.613,18.006-31.809,13.942-30.933,20.762c1.482,11.77,19.465,22.863,21.229,25.876 c1.764,2.989-11.98,11.595-9.692,23.085c2.043,14.281,39.714,27.711,6.924,40.625C29.108,303.042,40.353,301.525,66.042,298.898z"/> </g> </g>
</svg>