<!DOCTYPE svg PUBLIC "-//W3C//DTD SVG 1.1//EN" "http://www.w3.org/Graphics/SVG/1.1/DTD/svg11.dtd">
<!-- Uploaded to: SVG Repo, www.svgrepo.com, Transformed by: SVG Repo Mixer Tools -->
<svg fill="#000000" version="1.1" id="Capa_1" xmlns="http://www.w3.org/2000/svg" xmlns:xlink="http://www.w3.org/1999/xlink" width="800px" height="800px" viewBox="-19.02 -19.02 228.19 228.19" xml:space="preserve">
<g id="SVGRepo_bgCarrier" stroke-width="0">
<path transform="translate(-19.02, -19.02), scale(7.1309375)" d="M16,29.63805526588112C18.364123561968135,30.17871915257336,20.937282341364696,29.397397746902012,22.98308415315114,28.095056546786864C24.99640903816797,26.813389900551524,26.567395140318812,24.7777780540189,27.2345165670952,22.486251164227724C27.85322327319836,20.361026284582618,26.95723523594744,18.166608663302554,26.50426097912714,16C26.13213388316938,14.22008916000816,25.21714272590215,12.684215405025128,24.814464429067392,10.910966589115564C24.20842265580237,8.242178960675448,25.681356974867377,4.64501363801493,23.539000036194928,2.942068899046795C21.521450196104972,1.338332461029965,18.4905934749437,3.2415204945025433,16,3.904409672599286C14.00883605921182,4.434372125903626,12.414438027424085,5.740751631168959,10.469358040951196,6.420647128455194C7.974966678147857,7.292552380595991,4.734671695871189,6.516800674697118,2.9504421190363903,8.465834244620048C1.2016760030697138,10.376128698996965,1.774728142380009,13.41121183053083,1.7000043550506234,15.999999999999998C1.6233813374819617,18.654586557777062,0.6643504904817865,21.878207051480175,2.5081329231634655,23.78953308868221C4.455655281411964,25.808399374298954,8.07218025630179,24.157934777744437,10.64588592224754,25.273597612187032C12.795089584477092,26.205245189967194,13.716510049846967,29.11583190516786,16,29.63805526588112" fill="#ffc0cb" strokewidth="0"/>
</g>
<g id="SVGRepo_tracerCarrier" stroke-linecap="round" stroke-linejoin="round"/>
<g id="SVGRepo_iconCarrier"> <g> <g> <path d="M68.566,78.248H38.248v17.706c0,0,8.85,3.769,8.85,9.979c0,4.949-1.695,18.893-1.695,27.873 c0,6.971,1.131,57.819,8.008,56.312c6.875,1.508,8-49.341,8-56.312c0-8.98-1.695-22.924-1.695-27.873 c0-6.211,8.851-9.979,8.851-9.979l0,0L68.566,78.248L68.566,78.248z"/> <rect x="35.136" y="73.825" width="36.159" height="3.114"/> <rect x="35.136" y="69.495" width="36.159" height="3.108"/> <rect x="35.136" y="64.697" width="36.159" height="3.109"/> <rect x="35.136" y="60.362" width="36.159" height="3.114"/> <rect x="35.136" y="55.272" width="36.159" height="3.108"/> <rect x="35.136" y="50.948" width="36.159" height="3.108"/> <rect x="35.136" y="46.138" width="36.159" height="3.115"/> <rect x="35.136" y="41.809" width="36.159" height="3.108"/> <rect x="35.329" y="37.38" width="36.158" height="3.114"/> <rect x="35.329" y="33.05" width="36.158" height="3.109"/> <rect x="35.329" y="27.966" width="36.158" height="3.115"/> <rect x="35.329" y="23.636" width="36.158" height="3.104"/> <rect x="35.329" y="18.833" width="36.158" height="3.103"/> <rect x="35.329" y="14.503" width="36.158" height="3.109"/> <rect x="35.136" y="9.7" width="36.159" height="3.114"/> <path d="M68.566,2.729c0,0-3.956-2.729-15.348-2.729s-14.97,2.729-14.97,2.729v6.03h30.318V2.729z"/> </g> <g> <path d="M102.874,95.954c0,0,13.885,3.769,13.885,9.979c0,4.949-2.658,18.893-2.658,27.873c0,6.971,1.776,57.819,12.553,56.312 c10.785,1.508,12.557-49.341,12.557-56.312c0-8.98-2.658-22.924-2.658-27.873c0-6.211,13.884-9.979,13.884-9.979V78.248h-47.56 v17.706H102.874z"/> <rect x="96.809" y="73.135" width="56.71" height="2.553"/> <rect x="97.102" y="68.297" width="56.709" height="2.554"/> <rect x="97.251" y="63.692" width="56.713" height="2.554"/> <rect x="97.403" y="58.854" width="56.711" height="2.56"/> <rect x="97.552" y="53.852" width="56.716" height="2.554"/> <rect x="97.7" y="49.019" width="56.713" height="2.554"/> <rect x="97.552" y="43.831" width="56.716" height="2.554"/> <rect x="97.849" y="39.062" width="56.71" height="2.554"/> <rect x="97.849" y="34.219" width="56.71" height="2.56"/> <rect x="97.849" y="29.03" width="56.71" height="2.553"/> <rect x="97.849" y="23.566" width="56.71" height="2.554"/> <rect x="97.849" y="18.511" width="56.71" height="2.554"/> <rect x="98.3" y="13.439" width="56.716" height="2.548"/> <path d="M149.235,4.534c0,0-6.199-2.729-24.067-2.729c-17.875,0-23.479,2.729-23.479,2.729v6.037h47.553V4.534H149.235z"/> </g> </g> </g>
</svg>