<!DOCTYPE svg PUBLIC "-//W3C//DTD SVG 1.1//EN" "http://www.w3.org/Graphics/SVG/1.1/DTD/svg11.dtd">
<!-- Uploaded to: SVG Repo, www.svgrepo.com, Transformed by: SVG Repo Mixer Tools -->
<svg fill="#000000" version="1.1" id="Capa_1" xmlns="http://www.w3.org/2000/svg" xmlns:xlink="http://www.w3.org/1999/xlink" width="800px" height="800px" viewBox="-57.86 -57.86 694.28 694.28" xml:space="preserve">
<g id="SVGRepo_bgCarrier" stroke-width="0">
<path transform="translate(-57.86, -57.86), scale(21.69625)" d="M16,31.24401337631485C18.262122083034463,31.482659220597654,20.99060774799413,31.220607414477076,22.518212560498924,29.53520784928257C24.17215172169987,27.710424161559345,22.676335113040498,24.459680893809555,24.0199193095669,22.395672230363747C25.178630511584874,20.61566472091266,28.19613329779349,20.831812066293715,29.34614209139658,19.04616984064498C30.507891876228236,17.242297137259616,31.031404251958236,14.742553598257631,30.230798273104632,12.751913158801255C29.413459991762185,10.719669235409864,26.385229622244246,10.508603138860703,25.17750040745237,8.681187648599316C23.80474246630935,6.604067135739659,24.875590097442686,3.1845745422838094,22.903432838880672,1.6648740002641826C21.05747765725936,0.24242197323905823,18.325279339168624,1.4543024715395487,16,1.6092098521835663C13.79615454545445,1.7560274499479431,11.40971754199054,1.4031904773472184,9.525749152082941,2.55607958752363C7.65833080734067,3.6988409445242203,6.748060399874405,5.889091222847739,5.789569809273873,7.857453633854421C4.95132161309157,9.578885494156383,4.883834634144227,11.507846473168215,4.2816640612029175,13.325366291257993C3.6152294751836096,15.336852939690754,1.5287372131964703,17.129788383088414,2.035852714103692,19.187225493428752C2.5454727332032663,21.254823777433177,5.338792181608097,21.782594429708457,6.757597984437583,23.37056965676412C8.084975061215571,24.856214775131548,8.595508234903006,26.934467935157393,10.112074009339405,28.22640430104109C11.812198049265753,29.674710804272195,13.778939347180094,31.009699367061863,16,31.24401337631485" fill="#ffc0cb" strokewidth="0"/>
</g>
<g id="SVGRepo_tracerCarrier" stroke-linecap="round" stroke-linejoin="round"/>
<g id="SVGRepo_iconCarrier"> <g> <path d="M134.462,247.188c-18.036,20.045,17.367,134.951,17.367,134.951s-28.394-72.128-38.751-67.448 c-32.403,74.145,4.339,229.489,9.349,233.168s-15.688,30.733-29.385,17.375c16.036-16.393,0-33.411,0-33.411 s-3.679,3.679-12.036,6.679c5.688-12.697,8.009-45.43,8.009-45.43V459.66c0,0-7.349,30.732-22.706,34.751 c8.679-13.357,16.018-58.788,16.018-58.788s-8.009,13.019-16.018,13.34c4.661-8.357,0-34.751,0-34.751 s-26.394,35.073-41.439,28.073c14.375-6.662,20.045-36.092,20.045-36.092s-25.055,15.376-30.742,0 c18.375-0.66,28.072-20.035,28.072-20.035s-28.403,14.035-28.072,5.339c14.697-8.357,26.715-33.394,26.715-33.394 s-15.688,17.697-23.715,13.34c10.349-8.697,26.385-28.072,26.385-28.072s-26.385,15.393-29.385,1.339 c20.367-6.34,26.715-42.751,26.715-42.751s-20.045,22.715-26.715,14.696c13.366-8.001,30.742-29.376,25.375-30.733 c-5.339-1.339-21.045,13.019-33.403,5.34c23.055-12.019,37.412-78.851,37.412-78.851S1.806,236.804,6.146,225.777 c12.688-4.027,37.412-21.402,37.412-50.788C50.272,71.459,290.128-40.768,413.739,14.672 c26.108,18.233,57.449,40.091,57.449,40.091s13.018,14.357,24.054,18.688c-0.356,5.009-17.376,5.357-17.376,5.357 s15.358,13.018,29.395,13.349c0,9.357-30.733,5.339-30.733,5.339s61.002,69.011,62.788,92.2 c1.803,23.188,20.732,77.842,33.412,85.529c-9.68,8.019-16.715,11.358-36.073,1.339c-4.339,8,22.054,34.055,25.055,48.77 c3,14.697,0.339,40.43,11.019,58.127c-12.357,11.055-29.395-16.036-29.395-16.036s5.679,103.896,16.037,120.272 c-6.357,5.339-17.377-16.037-17.377-16.037s-24.054,18.019-8.018,36.072c-24.375,9.02-26.715-54.787-26.715-54.787 s-45.43,41.091-5.34,112.271c-10.34,5.982-39.072-46.787-39.072-46.787s-5.68,27.733,21.732,60.127 c-88.199-39.09-38.751-131.611-42.77-153.666c-4-22.036-38.751-35.394-38.751-35.394s-8.696,39.091,23.376,77.842 c-21.715,5.339-92.539-112.254-92.539-112.254s4.322,51.431,22.376,67.146c-11.019,9.696-49.118-50.448-49.118-50.448 s22.724,69.806,42.76,91.182c-20.376,11.375-99.227-118.915-99.227-118.915s24.376,71.163,46.77,100.218 c-8.009,4.982-91.539-112.915-91.539-112.915s-5.009,11.02,11.375,42.092C194.911,367.764,141.132,237.822,134.462,247.188z"/> </g> </g>
</svg>