<!DOCTYPE svg PUBLIC "-//W3C//DTD SVG 1.1//EN" "http://www.w3.org/Graphics/SVG/1.1/DTD/svg11.dtd">
<!-- Uploaded to: SVG Repo, www.svgrepo.com, Transformed by: SVG Repo Mixer Tools -->
<svg fill="#000000" version="1.1" id="Capa_1" xmlns="http://www.w3.org/2000/svg" xmlns:xlink="http://www.w3.org/1999/xlink" width="800px" height="800px" viewBox="-3.11 -3.11 37.34 37.34" xml:space="preserve">
<g id="SVGRepo_bgCarrier" stroke-width="0">
<path transform="translate(-3.11, -3.11), scale(1.166875)" d="M16,27.794817825231483C17.755640558541334,27.364215798857913,19.54880359165746,27.462597695969585,21.295007361871335,26.995196081933866C23.3071273989763,26.456617383949904,25.39559304653653,26.065060180189654,27.073483687561108,24.830808563053377C28.94328925472995,23.455384868217507,30.843990215561384,21.76710696339799,31.448807371249245,19.526089469598087C32.05473533758142,17.28095611026296,30.869059623087605,14.991469008418624,30.340132087743445,12.726958429079762C29.813402895409798,10.471859670210936,30.278082744370458,7.418362228990951,28.32875778075413,6.168143751871698C26.127615580651497,4.756419847084688,22.98714629748885,7.51320402560619,20.588215583334502,6.472472169119289C18.33356601120937,5.494334025703855,18.408681422672135,1.3078557323839077,16.000000000000004,0.8195395184790399C13.8043554340219,0.37441264057511875,12.095097628502964,2.924388598484367,10.418954719246674,4.410840059276653C9.009335175956661,5.660930977964786,8.383770915566572,7.547913466511261,6.987091015050886,8.81244492808396C5.274419399152454,10.363070193648735,1.9415358907106905,10.424239580718176,1.3195599547869872,12.64928535850429C0.7105620704210363,14.827903682823761,3.220154922346085,16.661334595112706,4.226771754548764,18.687162519530037C5.029253036352135,20.302165306580747,5.938754051457003,21.78903397319068,6.678298756266528,23.43380868098945C7.648696898865137,25.592009951394303,7.1432597779127125,28.937725244259166,9.286625934348802,29.94046489051852C11.441590186052753,30.948630520533033,13.689353087498546,28.361545016578457,16,27.794817825231483" fill="#ffc0cb" strokewidth="0"/>
</g>
<g id="SVGRepo_tracerCarrier" stroke-linecap="round" stroke-linejoin="round"/>
<g id="SVGRepo_iconCarrier"> <g> <g> <path d="M21.238,23.333c-0.146-1.609-1.793-19.983-1.793-21.937c0-2.043-7.764-1.67-7.764,0c0,1.598-1.649,20.312-1.792,21.938 H9.876v3.656h1.027v4.134h0.603v-2.815h0.253v2.815h0.413v-2.815h0.254v2.815h0.423v-2.815h0.253v2.815h0.414v-2.815h0.254v2.815 h0.46v-2.815h0.254v2.815h0.412v-2.815h0.254v2.815h0.423v-2.815h0.254v2.815h0.412v-2.815h0.255v2.815h0.498v-2.815h0.253v2.815 h0.414v-2.815h0.253v2.815h0.423v-2.815h0.253v2.815h0.414v-2.815h0.253v2.815h0.46v-2.815h0.253v2.815h0.527V26.99h0.752v-3.656 L21.238,23.333L21.238,23.333z M15.562,13.818c0.643,0,1.166,1.075,1.166,2.403c0,1.328-0.522,2.403-1.166,2.403 s-1.164-1.075-1.164-2.403C14.398,14.893,14.919,13.818,15.562,13.818z M20.22,24.937h-9.317V24.31h9.317V24.937z"/> <ellipse cx="15.562" cy="16.319" rx="0.558" ry="1.153"/> </g> </g> </g>
</svg>