<!DOCTYPE svg PUBLIC "-//W3C//DTD SVG 1.1//EN" "http://www.w3.org/Graphics/SVG/1.1/DTD/svg11.dtd">

<!-- Uploaded to: SVG Repo, www.svgrepo.com, Transformed by: SVG Repo Mixer Tools -->
<svg fill="#000000" version="1.1" id="Capa_1" xmlns="http://www.w3.org/2000/svg" xmlns:xlink="http://www.w3.org/1999/xlink" width="800px" height="800px" viewBox="-3.17 -3.17 38.07 38.07" xml:space="preserve" transform="matrix(-1, 0, 0, 1, 0, 0)">

<g id="SVGRepo_bgCarrier" stroke-width="0">

<path transform="translate(-3.17, -3.17), scale(1.1896875)" d="M16,31.026491760276258C18.580877321505174,30.862042491067083,19.89591262174948,27.828160703550953,21.852948237676173,26.137603721725853C23.432246136281332,24.773350017224715,25.229435769037607,23.72925031797039,26.426477505443195,22.019729594467208C27.696200655156098,20.20641100119597,28.739034947359194,18.20344649670038,28.95150784868747,16C29.17456708923351,13.686768058113735,28.45583982440698,11.452419649084444,27.655855293152875,9.270488808862869C26.73068508400105,6.747118252387174,26.444577523785433,3.205246915589407,23.921216643182568,2.2800503162476176C21.255012255761876,1.3024797866599358,18.839738648027357,5.010045771207902,16,4.996840214822441C13.138391195045049,4.983532956264259,10.425717690903738,0.631736238727882,8.03613452217542,2.2061803677640235C5.570959445852816,3.8304303527636545,8.583331237191201,8.309134216179338,7.099412013313682,10.8612431299407C5.607704375267422,13.426746897616123,0.4646589754196402,13.066490974238388,0.015742440707981586,15.999999999999996C-0.40209787861634805,18.73043707078496,3.5407108984708544,20.068851564896423,5.374213131141467,22.134800909087055C6.824866758515872,23.769364999994448,8.023923936172029,25.509450837822904,9.699970293790097,26.911971540348766C11.65687724547523,28.549517244368374,13.453490108652666,31.188751193212724,16,31.026491760276258" fill="#ffc0cb" strokewidth="0"/>

</g>

<g id="SVGRepo_tracerCarrier" stroke-linecap="round" stroke-linejoin="round"/>

<g id="SVGRepo_iconCarrier"> <g> <path d="M11.334,17.389c0.718,0.104,2.554-4.213,2.686-4.309c0.132-0.096,2.776,0.113,2.427-1.295 c-0.795,0.673-1.168-0.056-1.132-0.586c0.036-0.531,0.709-1.658,0.886-1.582c0.177,0.077,0.482,0.705,1.118,0.123 c-0.963,0.092-0.736-1.317-0.437-1.486c0.3-0.168,1.463-0.682,1.8-1.009s0.363-1.358,1.05-1.131 c0.687,0.227,0.18,1.689,0.385,2.181s2.063,2.062,2.032,2.557c-0.031,0.496-0.812,0.407-0.795,1.099c0,0.28,0.487,0.489,0.5,0.816 c0.014,0.327-0.526,0.573-0.526,0.573s0.463,0.127,0.373,0.618c-0.092,0.49-0.685,0.342-0.875,0.444 c-0.089,0.049,0.911,1.146,0.166,1.973c-0.672,0.791-4.035-0.042-4.682,0.209c-1.217,0.473-2.225,2.114-1.554,2.891 c0.67,0.776,2.985,3.281,3.586,5.362c1.031,2.728-1.496,7.49-2.909,4.036c-2,1.346,2.182,6.289,8.048-1.15 c4.495-6.049,2.297-17.062,0.969-19.536C23.124,5.714,16.942-2.83,10.308,0.952C2.056,5.46,5.981,16.367,11.334,17.389z"/> </g> </g>

</svg>